<svg id="Layer_1" data-name="Layer 1" xmlns="http://www.w3.org/2000/svg" viewBox="0 0 1015.5 919.63"><defs><style>.cls-1{fill:red;}.cls-2{fill:#fff;}.cls-3{font-size:12px;font-family:MyriadPro-Regular, Myriad Pro;}.cls-4{letter-spacing:-0.08em;}.cls-5{letter-spacing:-0.01em;}.cls-6{font-size:64px;font-family:Roboto-Medium, Roboto;font-weight:500;}</style></defs><path class="cls-1" d="M174.31,96.65a15.21,15.21,0,0,0-10.74-10.74c-9.48-2.54-47.46-2.54-47.46-2.54s-38,0-47.47,2.54A15.23,15.23,0,0,0,57.9,96.65c-2.54,9.47-2.54,29.24-2.54,29.24s0,19.77,2.54,29.24a15.23,15.23,0,0,0,10.74,10.74c9.48,2.54,47.47,2.54,47.47,2.54s38,0,47.46-2.54a15.21,15.21,0,0,0,10.74-10.74c2.54-9.47,2.54-29.24,2.54-29.24S176.85,106.12,174.31,96.65Z" transform="translate(-55.36 -83.37)"/><polygon class="cls-2" points="48.59 60.74 80.16 42.52 48.59 24.3 48.59 60.74"/><text class="cls-3" transform="translate(944.64 916.63)"><tspan class="cls-4">Y</tspan><tspan x="5.58" y="0">outube i</tspan><tspan class="cls-5" x="47.56" y="0">c</tspan><tspan x="52.86" y="0">ons</tspan></text><text class="cls-6" transform="translate(140.08 63.64)">Best Rated</text></svg>