<svg id="Best_Rated_Logo" data-name="Best Rated Logo" xmlns="http://www.w3.org/2000/svg" viewBox="0 0 409.57 286.7"><defs><style>.cls-1{fill:#27a063;}.cls-2{fill:#fff;}</style></defs><g id="Icon"><path class="cls-1" d="M453.61,158.3a51.3,51.3,0,0,0-36.21-36.21c-31.94-8.56-160-8.56-160-8.56s-128.07,0-160,8.56A51.3,51.3,0,0,0,61.15,158.3c-8.55,31.94-8.55,98.58-8.55,98.58s0,66.64,8.55,98.59a51.3,51.3,0,0,0,36.21,36.21c32,8.55,160,8.55,160,8.55s128.08,0,160-8.55a51.3,51.3,0,0,0,36.21-36.21c8.56-32,8.56-98.59,8.56-98.59S462.17,190.24,453.61,158.3Z" transform="translate(-52.6 -113.53)"/><polygon class="cls-2" points="163.83 204.79 270.24 143.35 163.83 81.92 163.83 204.79"/></g></svg>